<svg id="eyes_-_1brwn" data-name="eyes - 1brwn" xmlns="http://www.w3.org/2000/svg" viewBox="0 0 133.83 156.75">
    <defs>
        <style>
            .cls-1 {
                fill: #fff;
            }
            
            .cls-2 {
                fill: #624434;
            }
            
            .cls-3 {
                fill: #231f20;
            }
        </style>
    </defs>
    <title>eyes_1_brown_front</title>
    <path class="cls-1" d="M74.83,83.51s1.08-9.91,9.89-7.66c0,0,8.23,4.37,7.89,5.19C92.61,81,89.26,85.45,74.83,83.51Z" />
    <path d="M95,80.09s-.1,0-.12,0a1.9,1.9,0,0,1-1,.64,1.48,1.48,0,0,0-.29.12,1.67,1.67,0,0,1-.9.17,6.28,6.28,0,0,1-.75-.9,3.54,3.54,0,0,0-.9-1l-.37-.31a16.45,16.45,0,0,0-2.07-1.46,17.15,17.15,0,0,0-2.62-1.11c-.39-.16-.78-.28-1.18-.42A10,10,0,0,0,82,75.41a5.74,5.74,0,0,0-1.24.13,8.49,8.49,0,0,0-2,.64,4.74,4.74,0,0,0-.7.38,6.51,6.51,0,0,0-1.64,1.63c-.1.14-.22.27-.39.47,0-.14,0-.21,0-.26a7.23,7.23,0,0,1,.42-.89,9.72,9.72,0,0,1,1.17-1.68c.19-.2.35-.44.54-.65a5.66,5.66,0,0,1,.93-.9.58.58,0,0,0,.1-.13c-.08,0-.14,0-.18,0a2.64,2.64,0,0,0-.46.27,5.34,5.34,0,0,0-.65.61,13.15,13.15,0,0,0-2.19,3.23,3.39,3.39,0,0,0-.35,1.29,1.52,1.52,0,0,1-.12.51c-.1.3-.22.59-.33.88a6.52,6.52,0,0,0-.32,2.15.57.57,0,0,0,0,.13c0,.19.1.28.28.3a3.13,3.13,0,0,1,.6.16c.2,0,.41.07.61.11a4.74,4.74,0,0,1,.65.16,10.7,10.7,0,0,0,1.24.31,5,5,0,0,0,1.33,0,16,16,0,0,1,1.83,0c.32,0,.65,0,1,0a2.43,2.43,0,0,1,.71,0,1.31,1.31,0,0,0,.7-.08c.52-.18,1.07-.25,1.6-.38.32-.08.64-.14,1-.21l.87-.18a.52.52,0,0,0,.21-.07.22.22,0,0,0,.08-.13s-.06-.08-.1-.08a2.53,2.53,0,0,0-.48,0l-1.18.26c-.3,0-.61.08-1,.12a13.5,13.5,0,0,1-6.63.06,2.21,2.21,0,0,1-.5-.15A4.81,4.81,0,0,0,76,83.09a3.56,3.56,0,0,1-.45-.13c0-.4.08-.74.12-1.08a5,5,0,0,1,.11-.66A7.47,7.47,0,0,1,77,78.65a4.78,4.78,0,0,1,1.31-1.23l0,0s2.38-1.93,7.51-.09a3.74,3.74,0,0,1,.8.26c.24.12.51.17.75.29a6,6,0,0,1,1.4.74.54.54,0,0,0,.2.1,1.49,1.49,0,0,1,.62.42,1.87,1.87,0,0,0,.71.6,8.34,8.34,0,0,1,.77.8c.17.24.37.46.55.7a1.77,1.77,0,0,1,.26.41.38.38,0,0,0,.39.24,2.6,2.6,0,0,0,1.15-.31,1.81,1.81,0,0,1,.44-.22,3.67,3.67,0,0,0,1-.76.45.45,0,0,0,.14-.36A.18.18,0,0,0,95,80.09Z" />
    <path d="M79.33,76.51S76,80,80.08,84.12a15.74,15.74,0,0,0,5.36-.68s2.46-3.85.39-6.13C85.83,77.31,82.32,74.82,79.33,76.51Z" />
    <path class="cls-1" d="M56.66,82.53s-1-9.91-9.87-7.68c0,0-8.24,4.35-7.91,5.17C38.88,80,42.23,84.44,56.66,82.53Z" />
    <path d="M36.54,79.06s.1,0,.12,0a2,2,0,0,0,1,.64,1.48,1.48,0,0,1,.29.12,1.75,1.75,0,0,0,.89.17,6.36,6.36,0,0,0,.76-.9,3.5,3.5,0,0,1,.9-1l.38-.32A16.68,16.68,0,0,1,43,76.37a18.21,18.21,0,0,1,2.62-1.11c.39-.15.79-.27,1.18-.41a10,10,0,0,1,2.76-.43,5.74,5.74,0,0,1,1.24.13,8.81,8.81,0,0,1,2,.64,4.8,4.8,0,0,1,.7.39,6.47,6.47,0,0,1,1.63,1.63c.11.14.23.27.4.47a2.07,2.07,0,0,0,0-.26c-.14-.3-.26-.6-.42-.89a9.72,9.72,0,0,0-1.17-1.68c-.19-.21-.35-.44-.53-.65a6.08,6.08,0,0,0-.93-.9s0-.07-.1-.14.14,0,.18,0a2.51,2.51,0,0,1,.45.26,5.39,5.39,0,0,1,.65.61,13.45,13.45,0,0,1,2.19,3.25,3.58,3.58,0,0,1,.34,1.28,1.58,1.58,0,0,0,.12.52c.1.29.22.58.33.87A6.61,6.61,0,0,1,57,82.11a.3.3,0,0,1,0,.13c0,.18-.1.28-.28.29a4.08,4.08,0,0,0-.6.16c-.2,0-.41.08-.61.12a4.72,4.72,0,0,0-.65.15,10.7,10.7,0,0,1-1.24.31,4.57,4.57,0,0,1-1.33,0,16,16,0,0,0-1.83,0c-.32,0-.65,0-1,0a2.82,2.82,0,0,0-.71,0,1.3,1.3,0,0,1-.7-.07,14.91,14.91,0,0,0-1.6-.39c-.32-.08-.64-.14-1-.21l-.87-.18a.76.76,0,0,1-.21-.08.16.16,0,0,1-.07-.13s.06-.08.09-.08a2.69,2.69,0,0,1,.49,0c.39.08.78.19,1.17.27s.61.08,1,.12a13.64,13.64,0,0,0,6.63.08,2.21,2.21,0,0,0,.5-.15,4.79,4.79,0,0,1,1.33-.37,4.5,4.5,0,0,0,.46-.14c0-.4-.09-.74-.13-1.07a6.53,6.53,0,0,0-.1-.66,7.6,7.6,0,0,0-1.2-2.58,4.51,4.51,0,0,0-1.31-1.23l0,0s-2.37-1.93-7.5-.1a4.47,4.47,0,0,0-.81.25c-.24.12-.5.18-.74.29a6.12,6.12,0,0,0-1.41.74.54.54,0,0,1-.2.1,1.4,1.4,0,0,0-.62.42,2,2,0,0,1-.7.6,8.3,8.3,0,0,0-.78.79c-.17.25-.37.46-.55.7a2.23,2.23,0,0,0-.27.41.35.35,0,0,1-.39.23,2.46,2.46,0,0,1-1.15-.3,2.22,2.22,0,0,0-.43-.23,3.49,3.49,0,0,1-1-.76.45.45,0,0,1-.14-.36A.18.18,0,0,1,36.54,79.06Z" />
    <path d="M52.18,75.52s3.32,3.53-.77,7.62a16,16,0,0,1-5.36-.7s-2.45-3.86-.37-6.13C45.68,76.31,49.2,73.83,52.18,75.52Z" />
    <path class="cls-2" d="M79.9,78.48s6,.15,6.29,1.16c0,0-.21,3.28-1.94,3.91a20.23,20.23,0,0,1-3.41,0c-1-.19-2.92-2.85-2.15-5.08Z" />
    <path class="cls-2" d="M51.66,77.48s-6,.15-6.3,1.16c0,0,.22,3.28,2,3.91a20.23,20.23,0,0,0,3.41,0c1-.19,2.91-2.85,2.14-5.08Z" />
    <circle class="cls-1" cx="79.88" cy="78.72" r="1.21" />
    <path class="cls-3" d="M79.88,77.51a1.21,1.21,0,0,1,.06,2.41h-.06a1.21,1.21,0,0,1-.06-2.41h.06m0-.5h-.09a1.71,1.71,0,0,0,.09,3.41H80A1.71,1.71,0,0,0,79.88,77Z" />
    <circle class="cls-1" cx="46.87" cy="77.48" r="1.21" />
    <path class="cls-3" d="M46.87,76.27h.06a1.21,1.21,0,0,1-.06,2.42h-.06a1.21,1.21,0,0,1,.06-2.41m0-.5a1.71,1.71,0,0,0-.09,3.41h.09A1.71,1.71,0,0,0,47,75.77Z" />
</svg>