<svg id="eyes_-_2_BLUE" data-name="eyes - 2 BLUE" xmlns="http://www.w3.org/2000/svg" viewBox="0 0 146.09 156.94">
    <defs>
        <style>
            .cls-1 {
                fill: #fff;
            }
            
            .cls-2 {
                fill: #4ec9f5;
            }
            
            .cls-3 {
                fill: #231f20;
            }
        </style>
    </defs>
    <title>eyes_2_blue_side</title>
    <path class="cls-1" d="M30.32,80s2-5.65,10-5.43c0,0,5,2.38,4.88,6l-3.71,0S32.42,82.8,30.32,80Z" />
    <path d="M44.7,80.8a1,1,0,0,0-1-.53c-.17,0-.35,0-.51,0l-1.5.23L35.88,81s0,0,0,0a2.25,2.25,0,0,1-.78,0,6.59,6.59,0,0,0-1-.07,1.17,1.17,0,0,1-.45-.06,1.64,1.64,0,0,0-.62-.06l-.41,0a.82.82,0,0,1-.59-.19,8.63,8.63,0,0,1-.88-.74s-.06.08-.06.12a.58.58,0,0,0,.19.46c.21.19.42.38.62.59a.89.89,0,0,0,.61.3,2.88,2.88,0,0,0,.41,0,1.4,1.4,0,0,1,.61,0,1.88,1.88,0,0,0,.52.08c.48,0,1,.08,1.44.1a3.37,3.37,0,0,0,.55,0,4.42,4.42,0,0,1,.89,0,8.9,8.9,0,0,0,1,0l1.27-.08c.31,0,.62,0,.93,0s.45-.08.67-.11c.49-.08,1-.13,1.47-.21a4.89,4.89,0,0,1,1.43-.11,1.51,1.51,0,0,1,1,.45.61.61,0,0,0,.22.13c.06,0,.14-.06.13-.15a.43.43,0,0,0,0-.17A4.94,4.94,0,0,0,44.7,80.8Z" />
    <path d="M31.76,75.1h0Z" />
    <path d="M45.14,79.63a8.37,8.37,0,0,0-.55-1.34l-.81-1.45a11.6,11.6,0,0,0-1.06-1.48,6.86,6.86,0,0,0-2.72-2,3.05,3.05,0,0,0-1.23-.16,6.12,6.12,0,0,0-1.12,0,2.45,2.45,0,0,1-.38,0c-.4,0-1.74.36-2,.42s-1.4.32-1.83.46a4.36,4.36,0,0,0-1.1.46.75.75,0,0,1-.51.19l0,.27c.09,0,.19,0,.25,0a.33.33,0,0,1,.38-.18c.07,0,.5-.2.66-.24.43-.12.87-.21,1.3-.34.67-.2,3.13-.58,3.69-.64a1.93,1.93,0,0,1,.35,0,2.09,2.09,0,0,1-.53.34c-.19.08-1.82.11-2.07.2a12.64,12.64,0,0,0-1.18.55,12.39,12.39,0,0,0-2.72,1.6c-.47.33-2.14,2.72-2.34,2.86a.5.5,0,0,1-.76-.13l-.57-.61c-.07-.07-.16-.15-.25-.06a.36.36,0,0,0,.09.32c.24.36.93,1.24,1,1.34a.62.62,0,0,0,.59.22,1.42,1.42,0,0,0,.66-.33c.2-.17,2.37-3.09,2.5-3.14s6-3.2,7.52-2.29a1.71,1.71,0,0,1,.66.27l.8.64a11.18,11.18,0,0,1,3,4.86.73.73,0,0,0,.15.25.16.16,0,0,0,.28,0A2.13,2.13,0,0,0,45.14,79.63Z" />
    <path d="M35.21,76.42s-1.08,3.77.46,5.18h5.19s2.36-4.27-1-7.67Z" />
    <path d="M35.05,75.62s-1.46,4,.63,5.72h5.18s2.36-4.27-1-7.67Z" />
    <path class="cls-2" d="M36.3,77.58a8.25,8.25,0,0,1,4.92-.64,12.92,12.92,0,0,1-.57,3.69L35.88,81s-.92-1-.48-3.46Z" />
    <ellipse class="cls-1" cx="36.3" cy="77.58" rx="1.11" ry="0.89" transform="translate(-42.08 112.11) rotate(-88.7)" />
    <ellipse class="cls-1" cx="36.3" cy="77.58" rx="1.11" ry="0.89" transform="translate(-42.08 112.11) rotate(-88.7)" />
    <path class="cls-3" d="M36.32,76.47a1,1,0,0,1,.87,1.13.92.92,0,1,1-.87-1.13m0-.5a1.64,1.64,0,1,0,1.25,1.64A1.47,1.47,0,0,0,36.34,76Z" />
    <path class="cls-1" d="M73.32,80.66S71.86,74.75,62.54,75c0,0-5.56,2.26-5.46,5.93l4,0S70.88,83.24,73.32,80.66Z" />
    <path d="M57.63,81.13a1.08,1.08,0,0,1,1.09-.51c.18,0,.37,0,.56.06l1.62.26,6.34.61s0,0,0,0a2.9,2.9,0,0,0,.84.06,6.58,6.58,0,0,1,1.09,0,1.6,1.6,0,0,0,.48,0,1.71,1.71,0,0,1,.67-.05l.45,0a1,1,0,0,0,.66-.18,9.35,9.35,0,0,0,1-.72c0,.05.07.09.06.12a.59.59,0,0,1-.21.46,7.83,7.83,0,0,0-.69.58,1,1,0,0,1-.68.28c-.15,0-.29,0-.44,0a1.51,1.51,0,0,0-.67,0,2.77,2.77,0,0,1-.56.07l-1.58.06a3,3,0,0,1-.6,0,5.22,5.22,0,0,0-1,0c-.37,0-.75,0-1.12,0S64,82.06,63.56,82s-.67,0-1-.06-.49-.09-.74-.13c-.53-.09-1.06-.15-1.59-.25a5.78,5.78,0,0,0-1.55-.14,1.77,1.77,0,0,0-1.07.43,1.12,1.12,0,0,1-.24.13c-.08,0-.15-.07-.14-.16a.43.43,0,0,1,0-.17C57.39,81.48,57.5,81.3,57.63,81.13Z" />
    <path d="M71.86,75.74h0Z" />
    <path d="M57.19,80a7.39,7.39,0,0,1,.63-1.33c.3-.48.61-1,.92-1.43a10.53,10.53,0,0,1,1.19-1.46,8.36,8.36,0,0,1,1.28-1.1,4.52,4.52,0,0,1,1.73-.82,3.22,3.22,0,0,1,1.34-.14s0,0,.07,0a3.18,3.18,0,0,1,1.15.08c.14,0,.27,0,.41,0a6.14,6.14,0,0,1,1.28.23,9.36,9.36,0,0,0,.91.24c.19,0,.39.07.58.12.47.12.94.23,1.4.38a5.12,5.12,0,0,1,1.19.48.81.81,0,0,0,.55.21l0,.27c-.1,0-.2,0-.26-.06a.41.41,0,0,0-.42-.19c-.07,0-.14,0-.21-.08l-.49-.17c-.47-.13-1-.23-1.41-.37-.72-.22-1.47-.26-2.2-.46a12,12,0,0,0-1.8-.27,1.4,1.4,0,0,0-.38,0c.08.1.12.18.18.21s1.63.27,1.89.39,1.32.48,1.48.56a12.66,12.66,0,0,1,3.87,2.41,27.21,27.21,0,0,0,2.06,2.19.57.57,0,0,0,.83-.11c.07-.08.5-.48.64-.6s.17-.14.27,0a.34.34,0,0,1-.1.32c-.28.35-1,1.21-1.14,1.31A.7.7,0,0,1,74,81a1.49,1.49,0,0,1-.71-.35,16.69,16.69,0,0,1-1-1.56,12.69,12.69,0,0,0-1.83-1.62s-6.34-3.36-8-2.49a2,2,0,0,0-.72.26,1.58,1.58,0,0,1-.24.15,1.68,1.68,0,0,0-.66.47c-.24.25-.5.47-.75.71a9.73,9.73,0,0,0-1.11,1.35c-.26.36-.49.75-.72,1.14a6.67,6.67,0,0,0-.79,1.58.62.62,0,0,1-.17.25.18.18,0,0,1-.3,0A1.9,1.9,0,0,1,57.19,80Z" />
    <path d="M67.73,75.73s2.88,3.47-.18,6.15l-5.64-.11s-2.47-4.32,1.3-7.64Z" />
    <path class="cls-2" d="M67,78.11s-4.53-1.14-5.21,0a7.35,7.35,0,0,0,.39,2.93l5.19.5s1-.93.61-3.44Z" />
    <ellipse class="cls-1" cx="62.71" cy="78.12" rx="0.97" ry="1.11" transform="translate(-0.24 0.19) rotate(-0.17)" />
    <ellipse class="cls-1" cx="62.71" cy="78.12" rx="0.97" ry="1.11" transform="translate(-0.24 0.19) rotate(-0.17)" />
    <path class="cls-3" d="M62.71,77a1.12,1.12,0,1,1-1,1.11,1,1,0,0,1,1-1.11m0-.5a1.62,1.62,0,1,0,1.41,1.61,1.53,1.53,0,0,0-1.41-1.61Z" />
</svg>