<svg id="eyes_-_2_BROWN" data-name="eyes - 2 BROWN" xmlns="http://www.w3.org/2000/svg" viewBox="0 0 133.83 156.75">
    <defs>
        <style>
            .cls-1 {
                fill: #fff;
            }
            
            .cls-2 {
                fill: #624434;
            }
            
            .cls-3 {
                fill: #231f20;
            }
        </style>
    </defs>
    <title>eyes_2_brown_front</title>
    <path class="cls-1" d="M40.62,80.37s2.19-5.71,11.85-5.7c0,0,6.12,2.24,6,5.9l-4.44.06S43.23,83.12,40.62,80.37Z" />
    <path d="M57.89,80.79a1.25,1.25,0,0,0-1.2-.51c-.2,0-.41,0-.61.06l-1.78.27-7,.63v0a3.58,3.58,0,0,1-.93.06,9.47,9.47,0,0,0-1.19,0,2,2,0,0,1-.54,0,2.31,2.31,0,0,0-.74,0l-.49,0a1.11,1.11,0,0,1-.72-.18,10.56,10.56,0,0,1-1.08-.71s-.07.08-.07.12a.6.6,0,0,0,.24.46c.26.18.52.36.77.57a1.1,1.1,0,0,0,.74.28,4.22,4.22,0,0,0,.49,0,2.32,2.32,0,0,1,.74,0,2.54,2.54,0,0,0,.61.07q.87,0,1.74.06a4.85,4.85,0,0,0,.66,0,6.35,6.35,0,0,1,1.07,0c.41,0,.82,0,1.23,0s1-.08,1.52-.12.74,0,1.1-.07.54-.09.81-.13c.59-.09,1.17-.15,1.75-.25a7,7,0,0,1,1.71-.14,2,2,0,0,1,1.18.42.93.93,0,0,0,.27.12c.08,0,.16-.06.15-.15a.42.42,0,0,0-.05-.17C58.16,81.14,58,81,57.89,80.79Z" />
    <path d="M42.21,75.44h0Z" />
    <path d="M58.37,79.61a6.49,6.49,0,0,0-.7-1.33c-.33-.48-.67-1-1-1.43a12.08,12.08,0,0,0-1.31-1.45A8.45,8.45,0,0,0,52,73.48a4.38,4.38,0,0,0-1.48-.13,8.76,8.76,0,0,0-1.35.08,3.26,3.26,0,0,1-.45,0c-.47.06-2.07.41-2.4.48s-1.68.36-2.19.51a6.16,6.16,0,0,0-1.3.48,1,1,0,0,1-.61.21l0,.27c.11,0,.22,0,.29-.06a.45.45,0,0,1,.45-.19c.08,0,.6-.21.78-.25.52-.13,1-.24,1.55-.38.79-.22,3.74-.66,4.4-.74a2.43,2.43,0,0,1,.42,0,2.49,2.49,0,0,1-.62.35c-.22.09-2.18.17-2.48.26-.64.2-1.21.53-1.39.58a15.88,15.88,0,0,0-3.21,1.68c-.55.34-2.48,2.77-2.71,2.92a.68.68,0,0,1-.92-.11c-.08-.08-.56-.48-.71-.59s-.19-.15-.3-.06a.34.34,0,0,0,.12.33c.3.34,1.15,1.21,1.26,1.31a.84.84,0,0,0,.7.2,1.68,1.68,0,0,0,.78-.35c.24-.17,2.75-3.15,2.9-3.21,0,0,7.17-3.36,8.95-2.49a2.51,2.51,0,0,1,.79.25l1,.62A11.12,11.12,0,0,1,58,80.31a.64.64,0,0,0,.18.25.22.22,0,0,0,.34,0A1.69,1.69,0,0,0,58.37,79.61Z" />
    <path d="M46.37,76.67s-1.17,3.79.72,5.16l6.21-.13a5.79,5.79,0,0,0-1.46-7.64Z" />
    <path d="M46.16,75.87s-1.63,4.09.93,5.7l6.21-.13a5.79,5.79,0,0,0-1.46-7.64Z" />
    <path class="cls-2" d="M47.72,77.8A11.58,11.58,0,0,1,53.6,77s0,2.8-.57,3.71l-5.71.51s-1.13-.93-.68-3.44Z" />
    <ellipse class="cls-1" cx="47.72" cy="77.8" rx="1.07" ry="1.11" />
    <ellipse class="cls-1" cx="47.72" cy="77.8" rx="1.07" ry="1.11" />
    <path class="cls-3" d="M47.72,76.69a1.11,1.11,0,1,1-1.08,1.11,1.09,1.09,0,0,1,1.08-1.11m0-.5a1.61,1.61,0,1,0,1.55,1.61,1.59,1.59,0,0,0-1.55-1.61Z" />
    <path class="cls-1" d="M92,80.37s-1.59-5.91-11.89-5.7c0,0-6.15,2.24-6.06,5.9l4.47.06S89.25,82.94,92,80.37Z" />
    <path d="M74.61,80.79a1.26,1.26,0,0,1,1.21-.51c.2,0,.41,0,.61.06l1.79.27,7,.63v0a3.55,3.55,0,0,0,.93.06,9.63,9.63,0,0,1,1.2,0,2,2,0,0,0,.54,0,2.31,2.31,0,0,1,.74,0l.5,0a1.11,1.11,0,0,0,.72-.18,10.56,10.56,0,0,0,1.08-.71s.07.08.07.12a.6.6,0,0,1-.24.46,8.5,8.5,0,0,0-.77.57,1.14,1.14,0,0,1-.74.28,4.21,4.21,0,0,1-.5,0,2.32,2.32,0,0,0-.74,0,2.56,2.56,0,0,1-.62.07q-.87,0-1.74.06a4.85,4.85,0,0,1-.66,0,6.39,6.39,0,0,0-1.07,0c-.42,0-.83,0-1.24,0s-1-.08-1.53-.12-.74,0-1.11-.07-.54-.09-.81-.13c-.58-.09-1.17-.15-1.75-.25a7.1,7.1,0,0,0-1.72-.14,2,2,0,0,0-1.19.42.77.77,0,0,1-.26.12c-.08,0-.17-.06-.16-.15a.42.42,0,0,1,0-.17C74.34,81.14,74.47,81,74.61,80.79Z" />
    <path d="M90.36,75.44h0Z" />
    <path d="M74.13,79.61a7,7,0,0,1,.7-1.33c.34-.48.67-1,1-1.43a12.15,12.15,0,0,1,1.32-1.45,9.45,9.45,0,0,1,1.42-1.1,5.3,5.3,0,0,1,1.91-.82A4.16,4.16,0,0,1,82,73.35a.27.27,0,0,0,.09,0,3.87,3.87,0,0,1,1.27.08,3.26,3.26,0,0,0,.45,0,7.81,7.81,0,0,1,1.42.24c.32.1.66.17,1,.24s.44.07.65.12c.52.12,1,.24,1.55.39a6.16,6.16,0,0,1,1.3.48,1,1,0,0,0,.62.21l0,.27c-.11,0-.22,0-.29-.06a.46.46,0,0,0-.46-.19c-.08,0-.15-.05-.23-.08a5,5,0,0,0-.55-.17c-.52-.13-1-.24-1.56-.38-.79-.22-1.62-.26-2.42-.46a14.66,14.66,0,0,0-2-.28,2.62,2.62,0,0,0-.43,0c.1.1.14.18.2.21s1.8.27,2.09.4,1.47.48,1.64.56a14.28,14.28,0,0,1,4.27,2.43,29.48,29.48,0,0,0,2.26,2.19.68.68,0,0,0,.92-.11c.09-.08.56-.48.71-.59s.19-.15.3-.06a.34.34,0,0,1-.11.33c-.31.34-1.16,1.21-1.27,1.31a.84.84,0,0,1-.7.2,1.77,1.77,0,0,1-.79-.35c-.23-.17-.87-1.32-1.09-1.56a12.74,12.74,0,0,0-2-1.63s-7-3.38-8.79-2.51a2.49,2.49,0,0,0-.8.25,1.43,1.43,0,0,1-.27.15,1.8,1.8,0,0,0-.72.47c-.27.25-.56.46-.84.71a10.46,10.46,0,0,0-1.23,1.34c-.28.37-.54.75-.8,1.14a6.59,6.59,0,0,0-.88,1.58.64.64,0,0,1-.18.25.22.22,0,0,1-.34,0A1.77,1.77,0,0,1,74.13,79.61Z" />
    <path d="M85.79,75.42s3.17,3.48-.22,6.15l-6.24-.13A5.77,5.77,0,0,1,80.8,73.8Z" />
    <path class="cls-2" d="M84.93,77.8s-5-1.16-5.77,0a6.59,6.59,0,0,0,.43,2.93l5.73.51s1.14-.93.68-3.44Z" />
    <ellipse class="cls-1" cx="80.24" cy="77.8" rx="1.08" ry="1.11" />
    <ellipse class="cls-1" cx="80.24" cy="77.8" rx="1.08" ry="1.11" />
    <path class="cls-3" d="M80.24,76.69a1.11,1.11,0,1,1-1.08,1.11,1.09,1.09,0,0,1,1.08-1.11m0-.5A1.61,1.61,0,1,0,81.8,77.8a1.59,1.59,0,0,0-1.56-1.61Z" />
</svg>