<svg id="girl_hair_-_2_-_curly_pony_-_black" data-name="girl hair - 2 - curly pony - black" xmlns="http://www.w3.org/2000/svg" viewBox="0 0 133.83 156.75">
    <defs>
        <style>
            .cls-1 {
                fill: #231f20;
            }
            
            .cls-2 {
                fill: #0e0300;
            }
            
            .cls-3 {
                fill: #383030;
            }
        </style>
    </defs>
    <title>G2_curlypony_front_black_front</title>
    <path class="cls-1" d="M35.42,71.2s11.3-10.33,20.15-4.5c0,0,3.86.67,4-.33S46,55.84,35.42,71.2Z" />
    <path class="cls-1" d="M97.08,71.2s-11.3-10.33-20.15-4.5c0,0-3.86.67-4-.33S86.5,55.84,97.08,71.2Z" />
    <path class="cls-2" d="M95.64,33.47c-2-.53-4.9-2.44-2.74-10.73s-4.18-8.14-5.63-8.58-5.27-.24-6-5S76.15,3.27,72.9,4.88s-2.34-1.14-8.29-2.13A11.59,11.59,0,0,0,55,5.25C52.62,7,53.12,8.33,50.55,7.86c-3.13-.56-6.55,1.45-6,5.64s-2.72,4.95-3.84,5.67-6.48,2.14-2.66,8.6,1.85,8.77.28,9.7S97.65,34,95.64,33.47Z" />
    <path class="cls-3" d="M50.88,14.6s2.21-7,5.92-6.23,8.9,8.06,8.9,8.06-.3-6.76-4.49-9.56c0,0,6.94-3.46,8.49,5.77s-2.79,10.45-2.79,10.45Z" />
    <path d="M29,79h0a1,1,0,0,1-.93-.76c-.54-2.21-2.4-8.41-4.5-10.58L22.86,67c-2.4-2.44-4.67-4.74-2.49-8.82.81-1.52.73-1.68.51-2.12-.35-.69-.88-1.73-.62-4.51a22.83,22.83,0,0,0,0-3.69c-.14-2.76-.25-4.94,3.36-7.75,1.95-1.52,2.14-3.32,2.37-5.4s.48-4.5,2.88-6.35a21.34,21.34,0,0,0,3.26-3.8c3.58-4.8,8.49-11.37,18.78-10.92,5.63.24,6.45-.9,6.81-1.38,1-1.41,2.08-.87,4.42.66,6.36-3.72,9-1.58,11.85.7,2.29,1.84,4.9,3.94,10.37,3.7,10.35-.46,13.56,3.68,16.15,7a16,16,0,0,0,2.65,2.91c2.38,1.84,2.78,4.58,3.16,7.23s.7,4.86,2.67,6.39c3.3,2.57,2.57,4.52,1.87,6.41a8.92,8.92,0,0,0-.74,4.28c.29,3.06.52,3.33,1.13,4A12.31,12.31,0,0,1,113,58.15c2.18,4.08-.09,6.38-2.49,8.82l-.68.69c-2.11,2.17-4,8.37-4.5,10.58a1,1,0,0,1-.93.76,1,1,0,0,1-1-.68L99.38,66.14a1,1,0,0,1,.16-.93,5.72,5.72,0,0,0,1.54-3.9,11.31,11.31,0,0,1-2,3.58,1,1,0,0,1-1.76-.79c.29-1.89-1.89-2.44-6.94-3.22-3.48-.55-7.41-1.16-10.58-3-5.39-3.13-4.71-10.14-4.22-15.26.19-1.93.38-3.92.06-4.67,0-.11-.07-.13-.16-.15-1.28-.32-5.07,2-8,4.45a.89.89,0,0,1-.3.24,1,1,0,0,1-.51.11,1.25,1.25,0,0,1-.32-.05,1.14,1.14,0,0,1-.47-.34c-3-2.4-6.71-4.74-8-4.41h0c.61,3.29,3.35,18.85.93,22.84s-10,3-13.24,2.49a1,1,0,0,1,.33-2c.77.12,3.39.41,4.77-.84a2.71,2.71,0,0,0,.81-1.43,39.36,39.36,0,0,1-8.47,2c-5.05.79-7.23,1.34-6.94,3.23a1,1,0,0,1-1.76.79,11.1,11.1,0,0,1-2-3.58,5.68,5.68,0,0,0,1.54,3.9,1,1,0,0,1,.16.93L30,78.32A1,1,0,0,1,29,79ZM49.94,15.58c-8.61,0-12.8,5.61-16.19,10.14a21.72,21.72,0,0,1-3.64,4.19c-1.72,1.33-1.9,3-2.11,5-.24,2.22-.51,4.73-3.13,6.77-2.79,2.17-2.72,3.48-2.59,6.07a25.41,25.41,0,0,1,0,4c-.2,2.2.15,2.9.41,3.42.57,1.13.58,1.89-.53,4-1.42,2.68-.43,3.85,2.15,6.47l.69.71c1.79,1.84,3.24,5.63,4.12,8.36L32,66c-1.48-2.06-2-4-1.47-5.76.83-2.91,4.08-4.13,4.21-4.18a1,1,0,0,1,.74,1.86,2,2,0,0,0-1.31,1.32,3.91,3.91,0,0,0,.49,2.47c1.33-1.77,4.62-2.29,8-2.82,3.11-.49,6.63-1,9.41-2.5a1,1,0,0,1,1,0,1,1,0,0,1,.5.81,5.52,5.52,0,0,1-1.3,4.32c2.22-.16,4.09-.73,4.83-1.95,1.63-2.68.09-14.82-1.26-21.85a1,1,0,0,1,0-.57,2.18,2.18,0,0,1,1.53-1.32c2.46-.62,7,2.59,9.3,4.45,2.35-1.86,6.86-5.07,9.31-4.45a2.15,2.15,0,0,1,1.52,1.32c.51,1.22.32,3.16.08,5.63-.46,4.83-1,10.85,3.23,13.34,2.85,1.65,6.59,2.23,9.89,2.75s6.71,1.05,8,2.82a4,4,0,0,0,.49-2.47A2,2,0,0,0,98,57.93a1,1,0,0,1,.73-1.86c.14,0,3.38,1.27,4.22,4.18.5,1.77,0,3.7-1.47,5.76l2.88,8.62c.87-2.73,2.32-6.52,4.11-8.36l.69-.71c2.59-2.62,3.58-3.79,2.15-6.47a10.62,10.62,0,0,0-1.51-2.23c-1-1.1-1.29-1.74-1.61-5.15a10.74,10.74,0,0,1,.86-5.16c.66-1.8.91-2.47-1.23-4.14-2.6-2-3-5-3.42-7.69-.35-2.46-.66-4.59-2.4-5.93a17,17,0,0,1-3-3.26c-2.54-3.27-5.18-6.66-14.48-6.25-6.23.27-9.27-2.17-11.71-4.14-2.83-2.28-4.54-3.65-10.09-.22a1,1,0,0,1-1.08,0,26.68,26.68,0,0,0-2.3-1.4c-1,1.25-2.71,2.35-8.45,2.1Z" />
    <path d="M45.72,63.14h-.15c-.3,0-.47-.08-.47-.08a1,1,0,0,1,.41-2l.38.07a1,1,0,0,1-.17,2Z" />
    <path class="cls-2" d="M112.16,58.62c-2-3.75-2.52-1.75-3-7s3.73-6.5-.76-10S106.76,31.23,102.57,28s-4.88-10.3-18.15-9.72c-12.92.57-11-11.16-22.28-4.21-6.46-4.24.38,1-11.26.53C37.62,14,33.69,25.88,29.5,29.12s-.75,8.25-5.24,11.75-2.51,5.5-3,10.75,2,3.25,0,7,.25,5.5,3,8.34S29,78,29,78l4.07-12.17c-4.92-6.3,2-8.82,2-8.82-4.45,1.89,0,7.24,0,7.24-.79-5.22,10.39-3.24,17.5-7,.35,5.59-5.26,5.1-6.84,4.85,1.92.33,10.07,1.5,12.22-2,2.43-4-1.14-22.56-1.14-22.56,1.23-3,9.07,3.35,9.86,4v.06l0,0,0,0v0c.71-.58,8.64-7,9.88-4S73.27,52.9,80.34,57s18.81,1.89,18,7.24c0,0,4.45-5.35,0-7.24,0,0,6.9,2.52,2,8.82L104.39,78s2-8.19,4.76-11S114.16,62.37,112.16,58.62Z" />
    <path class="cls-2" d="M45.72,62.14l-.4-.07Z" />
    <path class="cls-3" d="M65.42,29.16s-8.75-4.4-13.49-1.54S44.06,37.83,44.41,40s7.6,8.4,6.47,11.9c0,0-2.58-5.75-7.84-6.75s-2.82-17.86,6-20.56S65.42,29.16,65.42,29.16Z" />
    <path class="cls-3" d="M79.48,21.87s11.82.21,10.55,8.6-2.08,24,11.32,18.45c0,0-10.59,2.35-8.36-5.83S99.7,15.62,79.48,21.87Z" />
    <path class="cls-3" d="M35.11,43.92s-10.42,2.46-9,7.26,4,11.72,1.42,12.76,0,6.43,0,6.43L22.1,63.94s-1.4-2.24,0-6.59S21.88,42.92,35.11,43.92Z" />
    <path class="cls-3" d="M66.73,41.62s-6.36-11.11-11-8.34c-5.61,3.34,1,12.26,2.81,20.24,0,.16.06.31.1.46.06.3.06.3.11.57,0,0-3.19-16.17-2.53-17.4s0-.26,0-.26C58.88,34.24,66.73,41.62,66.73,41.62Z" />
    <path class="cls-3" d="M66.73,41.62s4.72-11.78,9.5-10,2.47,7.52,3.25,14,11.9,10.5,18.71,7.25c0,0-12.26,6.53-17.85,4.14s-.09-19.7-4.19-20.64S66.73,41.62,66.73,41.62Z" />
</svg>