<svg id="heads_-_2_-_narrow_dark_skin" data-name="heads - 2 - narrow dark skin" xmlns="http://www.w3.org/2000/svg" viewBox="0 0 146.09 156.94">
    <defs>
        <style>
            .cls-1 {
                fill: #fff;
            }
            
            .cls-2 {
                fill: #231f20;
            }
            
            .cls-3 {
                fill: #a27b56;
            }
            
            .cls-4 {
                fill: #876055;
                opacity: 0.51;
            }
            
            .cls-5 {
                fill: #ede0dc;
            }
        </style>
    </defs>
    <title>head_2_narrow_dark_side</title>
    <path class="cls-1" d="M51.31,130.39c-4,0-6.16-1.33-7.26-2.44a5.36,5.36,0,0,1-1.63-3.79c0-1.53-3-6.64-6.21-12-2.48-4.2-5.3-9-7.58-13.46-5.09-10.08-1.8-18.37-1.1-19.91-3.47-17.65-1.13-32,7-42.65,12.33-16.23,34-18,34.23-18.05a34.21,34.21,0,0,1,4-.23c17.88,0,31.12,14,31.67,14.59,14.79,16.39,7.13,41.67,7.06,41.93l-.16.49a10.48,10.48,0,0,1,1.19.63,5.74,5.74,0,0,1,2.76,3.78c1.34,5.73-4.32,14.45-7,18.64-.44.68-.78,1.21-1,1.52-1.37,2.45-6.81,3.66-8.42,4l-1.68,3.4c-6.86,10.76-27,18.63-35.28,21.52A33,33,0,0,1,51.31,130.39ZM105.94,72.2c-1.54,0-2.58,1.48-3.21,2.83a9.18,9.18,0,0,1,7-.77C108.31,72.89,107,72.2,105.94,72.2Z" />
    <path class="cls-2" d="M72.67,18.57c17.75,0,31.11,14.35,31.11,14.35,14.66,16.25,6.88,41.18,6.88,41.18-1.9-1.95-3.46-2.67-4.72-2.67-3.52,0-4.73,5.62-4.73,5.62a8.87,8.87,0,0,1,5.94-2.4A9.43,9.43,0,0,1,112,76.1c7.71,4.6-4.13,20.42-5.52,22.92s-8.27,3.65-8.27,3.65l-1.84,3.75C91,115,76.13,122.5,61.56,127.56a31.91,31.91,0,0,1-10.25,2.07c-6.25,0-8.16-3.34-8.13-5.46,0-3-8.44-15.12-13.86-25.86s-1-19.47-1-19.47c-11.2-56.17,40.45-60,40.45-60a32.31,32.31,0,0,1,3.89-.23m0-1.53a34,34,0,0,0-4,.24c-1.32.1-22.35,2-34.75,18.34-8.19,10.79-10.59,25.26-7.14,43C25.83,80.76,22.93,89.06,28,99c2.29,4.53,5.11,9.29,7.6,13.5,2.73,4.6,6.12,10.33,6.1,11.65a6.22,6.22,0,0,0,1.85,4.34c1.21,1.21,3.54,2.67,7.81,2.67A33.93,33.93,0,0,0,62.06,129c8.4-2.92,28.69-10.88,35.64-21.77l0-.07,0-.07L99.29,104c2.14-.43,7.13-1.7,8.57-4.27.15-.27.51-.83.93-1.47,2.77-4.28,8.56-13.18,7.15-19.24a6.49,6.49,0,0,0-3.12-4.26c-.21-.13-.43-.25-.65-.37a58.59,58.59,0,0,0,2.08-14.8c.15-11.2-3.07-20.79-9.33-27.72-.58-.63-14-14.86-32.25-14.86Zm32.11,56.38a1.82,1.82,0,0,1,1.16-.46,2.35,2.35,0,0,1,.85.17,9.64,9.64,0,0,0-2,.29Z" />
    <path class="cls-3" d="M68.78,18.8s-51.65,3.87-40.45,60c0,0-4.44,8.73,1,19.47s13.9,22.86,13.86,25.86,3.81,8.45,18.38,3.39,31.36-13.15,35.92-22.19l1-2.63s6.12-1,8-3.72,11.92-18.12,7.14-21.82c-6.09-4.72-13.15-2.89-10.69-3.1,0,0,2.28-3.62,7.69,0,0,0,7.78-25.93-6.88-41.18C103.78,32.92,88.44,16.44,68.78,18.8Z" />
    <path class="cls-2" d="M98.2,92.65s6-1.9,4.62-5.94c0,0-.38-6.23,7.08-5.46,0,0-5.28,0-4.25,4.75C105.65,86,105.19,93.1,98.2,92.65Z" />
    <path class="cls-2" d="M110.66,74.1s-6.78-5.63-11.91,5.35c0,0,3.08-8,13.29-3.35Z" />
    <path class="cls-2" d="M98.75,79.45S103,70,112,76.1V72S103.38,68.47,98.75,79.45Z" />
    <path class="cls-4" d="M81.82,20.18S70.43,42.45,73,63.56c0,0-2.58,9.32.16,14.77a61.88,61.88,0,0,1,3.37,39s.12,2.12-2.07,4.94c0,0,20.57-7.76,24.09-19.52,0,0,4.23-1.82,5.53-2.61a34.85,34.85,0,0,0,8.15-12.65s-9,6.34-13.45,5c0,0,9.87-4.6-.5-13,0,0,5.8-10.47,13.06-7.65,0,0,5.35-14.32-4.17-33.35,0,0-5.37-13.25-25.32-18.27" />
    <path class="cls-5" d="M51.5,23.67S24,39.3,29.85,71.34c0,0-.6,3.83.77,6.46,0,0-5.48,16.54,10.08,40.29,0,0-10.91-16.34-13.26-24.64,0,0-2.64-4.34.62-16C28.06,77.42,18,39.09,51.5,23.67Z" />
</svg>