<svg id="heads_-_1_-_round_-_dark_skin" data-name="heads - 1 - round - dark skin" xmlns="http://www.w3.org/2000/svg" viewBox="0 0 133.83 156.75">
    <defs>
        <style>
            .cls-1 {
                fill: #fff;
            }
            
            .cls-2 {
                fill: #231f20;
            }
            
            .cls-3 {
                fill: #a27b56;
            }
            
            .cls-4 {
                fill: #876055;
                opacity: 0.51;
            }
            
            .cls-5 {
                fill: #ede0dc;
            }
        </style>
    </defs>
    <title>head_1_round_dark_front</title>
    <path class="cls-1" d="M66.51,130.75a16.91,16.91,0,0,1-12.39-5.81c-15.51-4.58-21.66-16.9-24.07-27l-.5.11a4.93,4.93,0,0,1-1.16.15,3.13,3.13,0,0,1-2.38-1,5.94,5.94,0,0,1-1.16-3.89c-4.77-4.51-5.7-15-3.49-18.73a3.76,3.76,0,0,1,3.4-1.93,7.68,7.68,0,0,1,3.08.77C26.48,53.76,30.24,39,39,29.46,48.66,19,61.55,18.21,65.27,18.21c.64,0,1.07,0,1.23,0s1-.09,2.12-.09c4.68,0,16.56,1.06,25.56,10.85,8.71,9.47,12.41,24.39,11,44.37a6.16,6.16,0,0,1,2.92-.89,3.42,3.42,0,0,1,3,1.83c2,3.46,2,14.12-2.87,18.7a5.93,5.93,0,0,1-1.15,3.89,3.11,3.11,0,0,1-2.38,1h0a5.32,5.32,0,0,1-1.16-.14l-.53-.13c-2.41,10.23-8.58,22.7-24.14,27.3A16.92,16.92,0,0,1,66.51,130.75Z" />
    <path class="cls-2" d="M68.62,18.91c8.56,0,40,3.54,35.68,56a7.11,7.11,0,0,1,3.78-1.62,2.7,2.7,0,0,1,2.42,1.46c2,3.38,1.74,13.87-3,18,0,0,.4,4.46-2.77,4.46a4.59,4.59,0,0,1-1-.12s1.24-11.49,0-14.37c0,0,2.68,33.53-25.27,41.62a16.33,16.33,0,0,1-12,5.71,16.29,16.29,0,0,1-12-5.71C26.6,116.2,29.38,82.93,29.38,82.93c-1.24,2.88,0,14.36,0,14.36a4.21,4.21,0,0,1-1,.13c-3.17,0-2.77-4.46-2.77-4.46C20.88,88.83,20,78.31,22,74.93a3,3,0,0,1,2.76-1.56,8.32,8.32,0,0,1,3.93,1.34C24.42,21.68,58.3,19,65.27,19c.8,0,1.24,0,1.24,0a20.41,20.41,0,0,1,2.11-.09m0-1.5h0c-1.09,0-1.83.06-2.13.09s-.63,0-1.22,0c-3.8,0-16.95.83-26.79,11.49C29.73,38.44,25.87,53,27,72.26a7.18,7.18,0,0,0-2.25-.39,4.53,4.53,0,0,0-4.05,2.3c-1.19,2-1.54,5.74-.91,9.73.39,2.44,1.45,6.82,4.3,9.69a6.39,6.39,0,0,0,1.35,4.09,3.89,3.89,0,0,0,2.94,1.24,5.6,5.6,0,0,0,1.05-.11c.18.73.38,1.46.6,2.2,3.77,12.56,12,21,23.65,24.59a17.7,17.7,0,0,0,12.82,5.9,17.68,17.68,0,0,0,12.82-5.9c11.71-3.54,19.9-12.08,23.7-24.72.24-.79.45-1.56.64-2.33a5.05,5.05,0,0,0,1.07.11,3.86,3.86,0,0,0,2.93-1.24A6.33,6.33,0,0,0,109,93.33c4.91-5,4.94-15.72,2.77-19.39a4.21,4.21,0,0,0-3.71-2.2,6,6,0,0,0-2.08.41c1.19-19.55-2.6-34.23-11.27-43.65-9.2-10-21.33-11.09-26.11-11.09Z" />
    <path class="cls-3" d="M110.75,74.84c-2.58-3.57-6.45,0-6.45,0C109.34,14.41,66.51,19,66.51,19S25.13,14.62,28.27,73.91c0,0-4.27-2.36-6.27,1s-1.12,13.9,3.62,18c0,0-.48,5.33,3.76,4.33,0,0-1.24-11.48,0-14.36,0,0-2.78,33.27,25.17,41.36a16.29,16.29,0,0,0,12,5.71,16.33,16.33,0,0,0,12-5.71c28-8.09,25.27-41.62,25.27-41.62,1.24,2.88,0,14.37,0,14.37,4.24,1,3.76-4.34,3.76-4.34C112.24,88.57,112.65,77.45,110.75,74.84Z" />
    <path class="cls-2" d="M22.47,76.27s4.75,2.73,4.25,5.81c0,0-.55,5.63,1.51,6.12a7.13,7.13,0,0,1-4-7.93Z" />
    <path class="cls-2" d="M110.31,75.68s-4.75,2.73-4.25,5.82c0,0,.55,5.62-1.51,6.11a7.13,7.13,0,0,0,4-7.93Z" />
    <path class="cls-4" d="M87,83.65s9.15,13.88-2.24,38.06c0,0,7.69-3.51,12.81-13.14A57.32,57.32,0,0,0,104,82.49s-.89-11.4.14-11.78c0,0,2.55-21.14-4.58-33.51A40.6,40.6,0,0,0,85.85,24.38s5.55,42.38-2.16,49.44" />
    <path class="cls-5" d="M42.81,27.8S29.45,47.88,36.18,72.47A59.32,59.32,0,0,0,34.28,96s5,18.62,16.66,27.05c0,0-7.52-3.14-11.78-8.88,0,0-7.08-6.68-9.73-25.88,0,0-.41-5.31-.3-10.14A26.84,26.84,0,0,0,27,68.45S25.16,51.3,33.91,35.8A71.53,71.53,0,0,1,42.81,27.8Z" />
</svg>