<svg id="MOUTH_3" data-name="MOUTH 3" xmlns="http://www.w3.org/2000/svg" viewBox="0 0 146.09 156.94">
    <title>mouth_3_side</title>
    <path d="M42.49,112.11c.25,0,2,.45,2.39.57s2.74.36,2.81.39a10.36,10.36,0,0,0,5.12-.22l1.54-.63a4.51,4.51,0,0,1,.87-.17c-.19.18-.94.7-1.07.83s-.73.5-.94.63A7.3,7.3,0,0,1,52,114a19.61,19.61,0,0,1-2.08,0c-.39-.05-1.82-.1-2.07-.19-.86-.31-1.57-.14-2.42-.46-.38-.15-2.12-.77-2.31-.9S42.54,112.16,42.49,112.11Z" />
    <path d="M39.09,110.36l-.69.64c-.13-.08-.16-.13-.1-.23a2.36,2.36,0,0,1,.94-1s.32.07.3.12a2.1,2.1,0,0,1-.14.24,1.5,1.5,0,0,0,.34.16,12.4,12.4,0,0,0,1.58.44l2.21-.73c.36-.12,1.9-.59,2.31-.68a9.79,9.79,0,0,1,1.5-.17c.16,0,.87.13,1.06.18a1.31,1.31,0,0,1,.55.34s.06.12,0,.14a1.83,1.83,0,0,1-.41,0,5.14,5.14,0,0,0-2.37.09c-.5.12-1,.26-1.49.42s-1,.28-1.45.43c-.08,0-1.38.47-1.58.58a.52.52,0,0,1-.44,0L40.4,111a8.41,8.41,0,0,1-.91-.42A.78.78,0,0,1,39.09,110.36Z" />
    <path d="M58.6,110.12c-.05-.11-.43-.29-.52-.36a.39.39,0,0,1-.07-.16c.28-.2,1.08.17,1.38.5.06.06,0,.37-.06.33l-.28-.14a2.91,2.91,0,0,1-.22.36c-.16.17-.63.89-.78,1s-.36.35-.5.33-1.37-.47-1.53-.51c-.63-.18-2.74-.79-3.14-1a3.52,3.52,0,0,0-1.28-.38,2.53,2.53,0,0,0-.86-.21c-.51-.08-1.71.45-1.76.39s.1-.28.16-.32a5.89,5.89,0,0,1,1-.49,2,2,0,0,1,1.16,0c.14,0,2.33.72,2.69.81.56.13,2.4.6,2.75.73.56.2.59.15,1-.21Z" />
    <path d="M46.33,106.19a6,6,0,0,0,.73.4,3.54,3.54,0,0,0,2.24.19,3.13,3.13,0,0,0,1.87-.55.34.34,0,0,1,.45,0,12.82,12.82,0,0,1,2.11,1.61A5.45,5.45,0,0,1,55,109.17a.58.58,0,0,1-.31-.16l-1.58-1.26a6.8,6.8,0,0,0-1.83-1.26,1.9,1.9,0,0,1-.43.41,8,8,0,0,1-1.2.5l-1.21,0a3.47,3.47,0,0,1-.61-.14,3.43,3.43,0,0,1-1.43-.69c-.14,0-.22-.13-.36,0s-1.14.77-1.41.93-1.1.87-1.37,1-.48.42-.54.47-.11-.11-.09-.14,1-.85,1.28-1.1A27,27,0,0,1,46.33,106.19Z" />
    <path d="M57.53,109.63v0l.05,0v0Z" />
</svg>