<svg id="MOUTH_3" data-name="MOUTH 3" xmlns="http://www.w3.org/2000/svg" viewBox="0 0 133.83 156.75">
    <title>mouth_3_front</title>
    <path d="M58.52,110.29c.28,0,2.22.47,2.67.59s3.06.39,3.13.42a13.41,13.41,0,0,0,5.74-.13l1.74-.58a5.93,5.93,0,0,1,1-.15c-.21.17-1.07.66-1.21.78s-.83.47-1.07.59a9.66,9.66,0,0,1-1.4.48c-.21,0-1.8,0-2.33,0s-2-.12-2.32-.21c-.95-.32-1.75-.17-2.69-.49-.43-.15-2.36-.78-2.58-.91S58.58,110.34,58.52,110.29Z" />
    <path d="M54.75,108.55l-.78.6c-.15-.08-.18-.12-.12-.22a2.55,2.55,0,0,1,1.08-.94s.35.07.33.12-.1.14-.16.23a1.8,1.8,0,0,0,.38.16,17.23,17.23,0,0,0,1.75.44c.38-.1,2-.53,2.49-.66s2.14-.54,2.6-.62a13.43,13.43,0,0,1,1.68-.14c.18,0,1,.14,1.19.2a1.4,1.4,0,0,1,.61.33s.06.12,0,.14a2.37,2.37,0,0,1-.45,0,6.7,6.7,0,0,0-2.66,0c-.56.11-1.11.23-1.66.38l-1.64.39c-.09,0-1.55.43-1.78.53a.6.6,0,0,1-.49,0c-.27-.08-.9-.33-.95-.34-.29-.07-.94-.39-1-.41A.93.93,0,0,1,54.75,108.55Z" />
    <path d="M76.59,108.63c-.06-.1-.48-.28-.57-.36a.2.2,0,0,1-.08-.14c.32-.19,1.2.17,1.53.49.07.07,0,.37-.07.33l-.31-.15a2,2,0,0,1-.26.35c-.17.16-.71.85-.88,1s-.41.34-.57.31-1.53-.48-1.7-.52c-.7-.18-3.05-.81-3.5-1a4.73,4.73,0,0,0-1.43-.4,3.73,3.73,0,0,0-1-.21,12.1,12.1,0,0,0-2,.34c0-.05.11-.26.18-.29a7.15,7.15,0,0,1,1.14-.46,2.39,2.39,0,0,1,1.3,0c.16,0,2.59.73,3,.82.63.14,2.68.62,3.07.75.62.2.66.16,1.15-.18C75.91,109.12,76.55,108.67,76.59,108.63Z" />
    <path d="M62.93,104.64a5,5,0,0,0,.81.4,4.54,4.54,0,0,0,2.5.22,3.91,3.91,0,0,0,2.1-.5.44.44,0,0,1,.51,0,13.85,13.85,0,0,1,2.33,1.58,5.84,5.84,0,0,1,1.39,1.32.67.67,0,0,1-.35-.16l-1.75-1.25a7.2,7.2,0,0,0-2-1.23,2.39,2.39,0,0,1-.49.38,9,9,0,0,1-1.36.46c-.44,0-.89,0-1.34,0a5,5,0,0,1-.68-.14,3.89,3.89,0,0,1-1.59-.7c-.16,0-.25-.12-.41,0s-1.29.72-1.6.87-1.24.82-1.55,1c-.15.08-.54.4-.6.44s-.12-.11-.1-.13c.16-.18,1.16-.81,1.45-1A31.08,31.08,0,0,1,62.93,104.64Z" />
    <path d="M75.4,108.15v0a.09.09,0,0,1,.06,0l0,0Z" />
</svg>