<svg id="MOUTH_2" data-name="MOUTH 2" xmlns="http://www.w3.org/2000/svg" viewBox="0 0 146.09 156.94">
    <title>mouth_2_side</title>
    <path d="M43.81,111.92a16.47,16.47,0,0,1,1.77.68c.33.15,2.18,1.12,2.23,1.15a3.64,3.64,0,0,0,3.68,0l1.14-.66a2.27,2.27,0,0,1,.64-.18c-.14.2-.69.76-.78.9s-.55.54-.7.68a4.23,4.23,0,0,1-.92.54,9.09,9.09,0,0,1-1.55,0,9.62,9.62,0,0,1-1.44-.55L46,113.39c-.29-.17-1.58-.89-1.72-1S43.85,112,43.81,111.92Z" />
    <path d="M39.1,110.81l-.68.64c-.13-.08-.16-.13-.11-.23a2.42,2.42,0,0,1,.94-1s.31.08.3.13a2.29,2.29,0,0,1-.15.24,1.46,1.46,0,0,0,.35.18,12.54,12.54,0,0,0,1.55.47l2.2-.7c.35-.12,1.88-.57,2.29-.66a9.21,9.21,0,0,1,1.48-.15c.16,0,.86.15,1,.21a1.32,1.32,0,0,1,.55.36.33.33,0,0,1,0,.14,1.38,1.38,0,0,1-.4,0,5.1,5.1,0,0,0-2.35,0c-.5.12-1,.25-1.47.41s-1,.27-1.44.41c-.08,0-1.37.46-1.56.57a.49.49,0,0,1-.44,0c-.24-.09-.8-.35-.85-.37a6.91,6.91,0,0,1-.9-.44A.8.8,0,0,1,39.1,110.81Z" />
    <path d="M57.67,110.8c-.05-.11-.38-.31-.46-.39s-.05-.1-.06-.15c.24-.2.94.21,1.21.56,0,.07,0,.38-.06.34l-.24-.16c0,.06-.14.29-.19.36s-.55.87-.68,1-.31.34-.44.32-1.2-.55-1.34-.6c-.55-.21-2.4-.93-2.76-1.13a2.81,2.81,0,0,0-1.12-.45,2.29,2.29,0,0,0-.75-.25c-.45-.1-1.5.38-1.54.31s.08-.28.13-.31a4.38,4.38,0,0,1,.89-.45,1.49,1.49,0,0,1,1,0c.12,0,2,.84,2.35,1,.49.15,2.11.72,2.42.86.49.23.52.19.9-.16C57.15,111.3,57.63,110.85,57.67,110.8Z" />
    <path d="M56.54,111v0l.05,0v0Z" />
    <path d="M52.43,107.16c-.6-.49-1.9-1.4-1.93-1.4s-1.33,1.55-1.38,1.61-.51.37-.71.21a15,15,0,0,1-1.16-1.23,15.3,15.3,0,0,0-1.78,1.29l-1.21.9c-.41.34-.86.62-1.25,1,0,0-.17-.35,1.33-1.61.41-.31,2.25-1.71,2.75-2.12.14-.1.24-.09.36.06s.75.89.91,1a.25.25,0,0,0,.32,0,19.32,19.32,0,0,0,1.77-1.9,12.58,12.58,0,0,1,1.62,1.28c.43.33,1.79,1.64,2.07,1.92a11,11,0,0,1,.87,1c.26.36.85,1.13.86,1.16S52.69,107.37,52.43,107.16Z" />
</svg>