<svg id="MOUTH_2" data-name="MOUTH 2" xmlns="http://www.w3.org/2000/svg" viewBox="0 0 133.83 156.75">
    <title>mouth_2_front</title>
    <path d="M60.56,110.18c.21,0,1.65.5,2,.63L65,111.9a4.83,4.83,0,0,0,4.12,0l1.29-.63a3.86,3.86,0,0,1,.73-.17c-.16.19-.8.72-.9.85a9.28,9.28,0,0,1-.8.64,5.86,5.86,0,0,1-1,.51,12.79,12.79,0,0,1-1.73,0,11.44,11.44,0,0,1-1.62-.52l-2.12-1c-.32-.16-1.75-.84-1.91-1S60.6,110.23,60.56,110.18Z" />
    <path d="M55.3,109.14l-.78.6c-.15-.08-.18-.12-.11-.22a2.52,2.52,0,0,1,1.07-.94c.05,0,.35.07.33.11a1.54,1.54,0,0,1-.17.24,2.05,2.05,0,0,0,.38.16,17.23,17.23,0,0,0,1.75.44l2.47-.66c.4-.11,2.12-.54,2.58-.62a13.15,13.15,0,0,1,1.67-.14c.18,0,1,.14,1.18.19a1.49,1.49,0,0,1,.6.34s.06.12,0,.14a3.67,3.67,0,0,1-.45,0,6.61,6.61,0,0,0-2.64,0c-.56.1-1.11.23-1.66.38s-1.08.26-1.63.39c-.08,0-1.53.43-1.76.53a.6.6,0,0,1-.49,0c-.26-.08-.89-.33-.95-.34-.28-.07-.93-.39-1-.41A.89.89,0,0,1,55.3,109.14Z" />
    <path d="M76.14,109.12c0-.1-.42-.29-.5-.37a.23.23,0,0,1-.07-.14c.28-.18,1.05.2,1.34.53.06.06,0,.36-.06.31l-.27-.15a2.17,2.17,0,0,1-.22.34c-.16.15-.63.82-.78,1s-.36.32-.5.3-1.34-.52-1.49-.56c-.62-.19-2.68-.87-3.08-1.06a3.55,3.55,0,0,0-1.25-.42,3,3,0,0,0-.84-.24,9.18,9.18,0,0,0-1.73.3c0-.06.09-.27.15-.3a7.29,7.29,0,0,1,1-.42,2,2,0,0,1,1.15,0c.13.05,2.27.79,2.63.89.54.15,2.34.67,2.69.81.55.22.58.18,1-.15Z" />
    <path d="M74.87,109.3l0,0,0,0v0Z" />
    <path d="M70.33,105.7c-.67-.46-2.11-1.31-2.14-1.31a18.86,18.86,0,0,0-1.58,1.51.71.71,0,0,1-.8.2,12,12,0,0,1-1.27-1.16,16.92,16.92,0,0,0-2,1.22c-.24.15-1.16.7-1.37.84-.48.32-1,.59-1.42,1,0,0-.2-.34,1.52-1.52.46-.29,2.55-1.61,3.12-2a.28.28,0,0,1,.41,0c.16.18.82.84,1,1a.35.35,0,0,0,.37,0,22.11,22.11,0,0,0,2-1.79,12.91,12.91,0,0,1,1.79,1.2c.48.31,2,1.54,2.29,1.81a9.88,9.88,0,0,1,1,1l1,1.09S70.61,105.9,70.33,105.7Z" />
</svg>