<svg id="noses_-_2_-_broad" data-name="noses - 2 - broad" xmlns="http://www.w3.org/2000/svg" viewBox="0 0 146.09 156.94">
    <title>nose_2_side</title>
    <path d="M45.52,85a2.39,2.39,0,0,1-.12.22l-.61.86c-.21.32-.43.64-.61,1-.48.94-2.43,5.92-2.26,6.28,0,1.82,1,4.15,1.8,4.58a11.15,11.15,0,0,0,1.91.83,6.81,6.81,0,0,0,2.57.32c.41,0,.81,0,1.22-.09s.71-.11,1.07-.18a1.31,1.31,0,0,0,.94-.7l0-.65a1.62,1.62,0,0,1,1.43.67.46.46,0,0,0,.63.16c.25-.11,0-.09.07-.34s-.33-.74-.48-1a2.48,2.48,0,0,0-2.16-.39,4.37,4.37,0,0,0-.62.17.22.22,0,0,0-.17.28.36.36,0,0,0,.21.17,5.24,5.24,0,0,0,.63.1,1.66,1.66,0,0,1-.93.52A19.51,19.51,0,0,1,48,98a5.51,5.51,0,0,1-3.93-1.55,6.42,6.42,0,0,1-.8-1.28.35.35,0,0,1-.05-.13c-.64-1.88-.6-1.79-.09-3.57C43.39,90.59,45.77,84.57,45.52,85Z" />
    <path d="M41.42,95.52s-.86,1.59,1.73,1.8l1.21.94s-2.39.13-3.07-.87A1.51,1.51,0,0,1,41.42,95.52Z" />
</svg>