<svg id="noses_-_5_-_upturn" data-name="noses - 5 - upturn" xmlns="http://www.w3.org/2000/svg" viewBox="0 0 146.09 156.94">
    <title>nose_5_side</title>
    <path d="M42.12,97c.17.6,1.36,1.59,1.76,1.94a5.4,5.4,0,0,0,3.37,1A20,20,0,0,0,50,98.62a.82.82,0,0,0,.15-.68c0-.09-.31,0-.33,0a2.26,2.26,0,0,1-1.23.79,10.32,10.32,0,0,1-1.48.4A3,3,0,0,1,45,98.63a3.43,3.43,0,0,1-1.44-1.48,3.11,3.11,0,0,1-.6-1.52A5.9,5.9,0,0,1,43.27,94c.16-.64,5-11.65,5.13-12.28,0-.17-.3-2.32-.43-1.56-.18,1.15-4.55,12.11-5,12.4a8.94,8.94,0,0,0-.91,3,3.19,3.19,0,0,1-.07.54c-.21,0-.36-.2-.57-.23a3.73,3.73,0,0,0,.07-.72,3.55,3.55,0,0,0-.13-.65.25.25,0,0,0-.37,0,.39.39,0,0,0-.18.35.76.76,0,0,0,.06.25c.15.46-.18,1-.14,1.24a.33.33,0,0,0,.24.29C41.15,96.6,41.91,96.9,42.12,97Z" />
    <path d="M50.06,97l.56.25a5.49,5.49,0,0,1,1.23.63,1.56,1.56,0,0,0,.4.22,2,2,0,0,1,.63.33.61.61,0,0,1,.33.43.2.2,0,0,0,.28.13,5,5,0,0,0,.74-.34.39.39,0,0,0,0-.67c-.13-.06-.26-.09-.39-.14a2.57,2.57,0,0,1-.41-.19,3.24,3.24,0,0,0-.88-.42.9.9,0,0,1-.28-.13,2.32,2.32,0,0,0-.87-.41,7.89,7.89,0,0,1-1-.48c-.39-.2-.63-.11-.8.3-.07.18-.13.36-.19.53a.56.56,0,0,0,0,.25.29.29,0,0,0,.11.21.24.24,0,0,0,.23,0C49.79,97.31,49.92,97.15,50.06,97Z" />
    <path d="M54.16,93.62c-.17.1-.17.19-.1.29A8,8,0,0,0,55,95c.31.3.59.62.87.94a1,1,0,0,1,.21,1,.8.8,0,0,0,0,.55.38.38,0,0,0,.06.13.21.21,0,0,0,.31,0,.36.36,0,0,0,.11-.17A5.21,5.21,0,0,0,56.74,96a.53.53,0,0,0-.19-.4l-1.92-1.62A5.46,5.46,0,0,0,54.16,93.62Z" />
</svg>