<svg id="noses_-_3_-_button" data-name="noses - 3 - button" xmlns="http://www.w3.org/2000/svg" viewBox="0 0 146.09 156.94">
    <title>nose_3_side</title>
    <path d="M42.92,97.83a2.42,2.42,0,0,1-1.21-.77.49.49,0,0,1-.11-.53.46.46,0,0,0,0-.23.4.4,0,0,0-.1-.18.17.17,0,0,0-.15,0,1.09,1.09,0,0,0,0,1.63,2.68,2.68,0,0,0,1.36.64c.18,0,.29-.1.46-.16a2.79,2.79,0,0,1,.35.34,3,3,0,0,0,.86.76A4.67,4.67,0,0,0,46,100a5,5,0,0,0,3.21-.32,2,2,0,0,0,.42-.25.32.32,0,0,0,0-.53.53.53,0,0,0-.5-.09l-1,.29a3.44,3.44,0,0,1-2.84-.41,3.39,3.39,0,0,1-1-1,1.36,1.36,0,0,1-.2-.48,9,9,0,0,1-.32-2.58A7.59,7.59,0,0,1,44,92.41a15.7,15.7,0,0,0,1.65-1.87c.32-.77.61-1.54,1-2.3a22.74,22.74,0,0,0,.84-2.15c.19-.52.32-1.06.5-1.58a11,11,0,0,0,.42-2.32c.09-.73.11-1.45.27-2.17.06-.3.09-.6.12-.9a.4.4,0,0,0,0-.24c-.33-.48-.65-2.3-1-2.77a4.81,4.81,0,0,0-.5-.51.36.36,0,0,0-.34-.06c-.19,0-.28.16-.2.28a2.76,2.76,0,0,0,.23.27c.47.44.77,2.3,1.12,2.81a.42.42,0,0,1,.05.36c-.12.43-.22.86-.33,1.29,0,.17-.1.33-.13.49s-.09.49-.14.73a6.21,6.21,0,0,1-.16.86,9.56,9.56,0,0,0-.24,1.06,2.51,2.51,0,0,1-.14.52,8.68,8.68,0,0,0-.43,1.37,6.92,6.92,0,0,1-.28.76,4.78,4.78,0,0,0-.19.48,11.29,11.29,0,0,1-.6,1.51c-.29.67-.55,1.35-.83,2S42.94,91.43,42.71,92c-.07.17-.05.3-.15.52a8.69,8.69,0,0,0-.19,2.4,12.41,12.41,0,0,0,.47,2.56Z" />
    <path d="M50,99.1a1.34,1.34,0,0,1,1.42-.39.22.22,0,0,1,0,.13c0,.39,0,.44.33.5a2.35,2.35,0,0,0,.95-.13.62.62,0,0,0,.37-.63.4.4,0,0,0-.22-.37,2.34,2.34,0,0,0-1.13-.28,5.12,5.12,0,0,0-1.11.15,1.33,1.33,0,0,0-.74.54.41.41,0,0,0,0,.27C49.86,99,49.93,99,50,99.1Z" />
    <path d="M54.52,99.43a.48.48,0,0,0,.57-.07,3,3,0,0,0,.54-.47c.27-.33.52-.69.77-1a.56.56,0,0,0,.09-.49c0-.12-.08-.22-.21-.23a.22.22,0,0,0-.24.18,2.86,2.86,0,0,1-1.14,1.63C54.75,99.05,54.56,99.14,54.52,99.43Z" />
</svg>