<svg id="noses_-_4_-_hawk" data-name="noses - 4 - hawk" xmlns="http://www.w3.org/2000/svg" viewBox="0 0 133.83 156.75">
    <title>nose_4_front</title>
    <path d="M67.38,99.53a3.68,3.68,0,0,0,1-.07l.12,0a1.42,1.42,0,0,0,1.09-.53L71,97.67l.42-.4a2.84,2.84,0,0,1,.79-.54,2,2,0,0,1,.21-.1,1.11,1.11,0,0,1,.26-.07,2.09,2.09,0,0,0,.25,0c.1,0,.19-.09.19-.21s-.09-.17-.18-.22a.6.6,0,0,0-.63-.05c-.12.05-.23.12-.35.18l-.54.3a2.32,2.32,0,0,0-.4.3c-.28.25-.55.52-.83.79l-.21.16a4.93,4.93,0,0,0-.75.6,1.28,1.28,0,0,1-.94.35c-.69,0-1.38,0-2.07,0a.94.94,0,0,1-.57-.28c-.4-.35-.82-.68-1.2-1.06s-1-.9-1.58-1.35c-.07-.06-.14-.1-.21-.15a.39.39,0,0,0-.4-.06,2.26,2.26,0,0,1-.79.12.54.54,0,0,0-.25.09.19.19,0,0,0,0,.33,1.48,1.48,0,0,0,.36.1,2,2,0,0,0,.34.05,1.12,1.12,0,0,1,.62.25c.39.33.78.64,1.18,1A14.8,14.8,0,0,0,65,98.78c.23.15.44.33.68.46a1.9,1.9,0,0,0,1,.29C66.91,99.51,67.11,99.53,67.38,99.53Z" />
    <path d="M73.12,92.48a4.76,4.76,0,0,0-1.26.32.18.18,0,0,0-.07,0,.22.22,0,0,0,0,.25.23.23,0,0,0,.23.07.44.44,0,0,0,.15,0,1.64,1.64,0,0,1,.8-.08.74.74,0,0,1,.58.31,6.23,6.23,0,0,1,.66,1.18c.13.28.25.57.36.85a1.17,1.17,0,0,1,.12.31.38.38,0,0,1-.11.35,1.73,1.73,0,0,1-.9.51,2.1,2.1,0,0,0-.24.06.31.31,0,0,0-.18.38.33.33,0,0,0,.18.17.88.88,0,0,0,.36,0,1.76,1.76,0,0,0,.93-.47c.16-.16.33-.31.51-.46a.45.45,0,0,0,.18-.4,2.25,2.25,0,0,0-.29-1,6.07,6.07,0,0,1-.31-.69,6.59,6.59,0,0,0-.88-1.4.67.67,0,0,0-.44-.24Z" />
    <path d="M61.22,92.7a3.2,3.2,0,0,1,.87.17,2.07,2.07,0,0,0,.33.1.37.37,0,0,0,.34-.06.2.2,0,0,0,0-.36,1.79,1.79,0,0,0-.42-.2,6.7,6.7,0,0,0-.74-.19.7.7,0,0,0-.83.31c-.12.22-.26.44-.39.66a1.3,1.3,0,0,1-.08.17,4.3,4.3,0,0,0-.64,2,9.48,9.48,0,0,0,0,1.07.66.66,0,0,0,.34.58,2.87,2.87,0,0,0,1.54.54c.12,0,.26,0,.31-.15a.88.88,0,0,0-.22-.1A2.13,2.13,0,0,1,60.8,97a2,2,0,0,1-.38-.33.59.59,0,0,1-.15-.42,10,10,0,0,1,.15-1.81,3,3,0,0,1,.28-.83A3.69,3.69,0,0,1,61.22,92.7Z" />
    <polygon points="65.64 81.27 64.63 85.86 64.63 91.06 64.91 90.45 65.63 85.48 66 82.1 65.64 81.27" />
</svg>