<svg id="noses_-_1_-_roman" data-name="noses - 1 - roman" xmlns="http://www.w3.org/2000/svg" viewBox="0 0 146.09 156.94">
    <title>nose_1_side</title>
    <path d="M47.2,82.21s-2,6.6-2.88,7.28c0,0-4,3.73-2.6,7a4.35,4.35,0,0,0,2.68,2.39,5.55,5.55,0,0,1,.54.23,6.75,6.75,0,0,0,3.35-.46s-4.37.48-5.75-2c-1.29-2.32.06-4.6,2.56-7Z" />
    <path d="M55.14,96.1s-.8,2.12-1.66,1.86c0,0,1.91-2.11.89-3.33,0,0-.51-1.62-1.75-1.49C52.62,93.14,56.2,93.17,55.14,96.1Z" />
    <path d="M51.61,97.89a4.69,4.69,0,0,0-3.85-.72S49.26,94.69,51.61,97.89Z" />
    <path d="M41.73,96.79l-2-1.44s-.39-1.46,1.48-2.79C41.18,92.56,38.34,94.73,41.73,96.79Z" />
</svg>