<svg id="noses_-_2_-_broad" data-name="noses - 2 - broad" xmlns="http://www.w3.org/2000/svg" viewBox="0 0 133.83 156.75">
    <title>nose_2_front</title>
    <path d="M58.73,95.71a2,2,0,0,1-.24-1.57.67.67,0,0,0,0-.2.52.52,0,0,0-.06-.13c-.14,0-.21.07-.25.16-.11.26-.21.53-.31.81,0,.09,0,.2-.06.3a1.82,1.82,0,0,0,.25,1.42.76.76,0,0,0,.4.37c.55.24,1.05.58,1.61.78a.44.44,0,0,1,.18.09.53.53,0,0,0,.71.08l.52.43c.25.21.49.43.74.63a2,2,0,0,0,1,.44,14,14,0,0,0,1.56.24A2.91,2.91,0,0,0,66,99.41c.47-.18,1-.34,1.45-.5a13.33,13.33,0,0,0,1.6-.81,3,3,0,0,0,.3-.18,1.47,1.47,0,0,1,1.37-.19.59.59,0,0,1,.14.06A2.1,2.1,0,0,0,73,97.62a2.48,2.48,0,0,0,1.16-1.45,2.82,2.82,0,0,0,.14-1.26,2.39,2.39,0,0,0-.51-1.16.51.51,0,0,0-.35-.19.26.26,0,0,0-.26.12.21.21,0,0,0,0,.28c0,.07.11.13.16.19a1.44,1.44,0,0,1,.3,1.11,2.63,2.63,0,0,1-.23.83,1.36,1.36,0,0,1-1.69.69,6.22,6.22,0,0,1-.71-.29.72.72,0,0,0-.64,0,9.37,9.37,0,0,0-1.16.53,13.82,13.82,0,0,1-2.67,1.18,3.38,3.38,0,0,1-1.67.13c-.38-.06-.77-.13-1.16-.22a2.73,2.73,0,0,1-.93-.4,6.43,6.43,0,0,1-1.11-.9,1,1,0,0,0-.72-.33,5.54,5.54,0,0,1-1.43-.4A7,7,0,0,1,58.73,95.71Z" />
    <path d="M63.63,81.8s-2,5.72-1.59,9.59c0,0,0,.44.39.13,0,0,1.36-9.45,1.38-9.72S63.71,81.55,63.63,81.8Z" />
</svg>