<svg id="noses_-_5_-_upturn" data-name="noses - 5 - upturn" xmlns="http://www.w3.org/2000/svg" viewBox="0 0 133.83 156.75">
    <title>nose_5_front</title>
    <path d="M71.29,98.23l-.09.1c-.07,0-.15.09-.11.17s.15.06.24.06l.14,0c.31,0,.53-.12.59-.38-.29-.18-.57-.37-.87-.54L70,97a3.3,3.3,0,0,1-.43-.3.53.53,0,0,0-.66,0,3.58,3.58,0,0,0-.52.34,7.23,7.23,0,0,0-1.14,1.14,1.87,1.87,0,0,1-.55.48c-.6,0-1.21-.08-1.84-.18a2.82,2.82,0,0,1-.42-.62c0-.07,0-.14-.09-.19a11.57,11.57,0,0,0-.83-1,1.14,1.14,0,0,0-.11-.11.4.4,0,0,0-.41-.09,3.31,3.31,0,0,0-1,.41,2.85,2.85,0,0,0-.91.84c-.14.23-.28.46-.39.69s0,.46.37.55l.63.14A.31.31,0,0,0,62,99a1.2,1.2,0,0,0,.16-.15c0-.12-.11-.17-.24-.21a.68.68,0,0,1-.42-.28,3.71,3.71,0,0,1,.39-.73,2.07,2.07,0,0,1,.67-.56,2.09,2.09,0,0,1,.33-.12,1.48,1.48,0,0,1,.59.57c.21.3.4.6.61.91a2,2,0,0,0,.17.23.36.36,0,0,0,.25.13,6.57,6.57,0,0,0,.67.22c.17,0,.33.06.5.07a2.09,2.09,0,0,1,.71.15.59.59,0,0,0,.6,0,2.33,2.33,0,0,0,.74-.64c.4-.52.92-1,1.38-1.51A19.82,19.82,0,0,1,71.29,98.23Z" />
    <path d="M60.1,99c-.06-.07-.1-.15-.16-.18a1.35,1.35,0,0,1-.74-1.39,6.38,6.38,0,0,1,0-1,3.19,3.19,0,0,1,.19-.67c0-.17.12-.34.2-.55a.8.8,0,0,0-.24,0,.5.5,0,0,0-.37.32,3.61,3.61,0,0,1-.35.71.57.57,0,0,0-.07.22,10.92,10.92,0,0,0-.07,1.81,1.89,1.89,0,0,0,.1.41A.64.64,0,0,0,59,99l.53.18A.42.42,0,0,0,60.1,99Z" />
    <path d="M73.83,96.1c-.16,0-.19.12-.17.21a1.76,1.76,0,0,0,.12.45,2.14,2.14,0,0,1,.11,1.06.67.67,0,0,1-.54.68c-.23,0-.45.13-.68.17-.43.08-.86.13-1.29.19a.85.85,0,0,0-.23,0,.18.18,0,0,0-.1.13s.07.09.11.14h0a4.42,4.42,0,0,0,2.31,0,1.67,1.67,0,0,0,.84-.63.92.92,0,0,0,.11-.68,8.52,8.52,0,0,0-.23-1.14C74.16,96.44,74,96.29,73.83,96.1Z" />
    <path d="M66.3,90.17a3.87,3.87,0,0,0-1.23.4,4.33,4.33,0,0,0-.86.49,5.41,5.41,0,0,0-.72.64c-.16.16-.31.35-.46.53a1.7,1.7,0,0,0-.49,1.1,2,2,0,0,1-.08.22c-.24,0-.32-.12-.36-.34a1.23,1.23,0,0,1,.17-.88,4.56,4.56,0,0,1,.31-.42,5.5,5.5,0,0,1,2-1.56A2.77,2.77,0,0,1,66.3,90.17Z" />
    <path d="M66.5,90.24a2,2,0,0,1,1.19.47c.35.29.41.36.5.64-.19,0-.27-.15-.4-.23l-.44-.29a4.49,4.49,0,0,0-.42-.24A.77.77,0,0,1,66.5,90.24Z" />
    <path d="M64,81.08l-1.15,8.46s-.45.2-.48-.73,1.28-6.16,1.48-8C63.84,80.85,64.08,80.48,64,81.08Z" />
</svg>