<svg id="noses_-_3_-_button" data-name="noses - 3 - button" xmlns="http://www.w3.org/2000/svg" viewBox="0 0 133.83 156.75">
    <title>nose_3_front</title>
    <path d="M61.39,99a4.29,4.29,0,0,1-.88-.17,1.92,1.92,0,0,1-.72-.38,4,4,0,0,1-.68-.53,3.92,3.92,0,0,1-.43-.68c-.08,0-.11.06-.13.12a.75.75,0,0,0,0,.47,2,2,0,0,0,.87,1.11,3.75,3.75,0,0,0,1.59.53c.38,0,.76,0,1.15,0a.75.75,0,0,0,.57-.31s0-.09,0-.14c-.24-.22-.63-.22-.85-.57a1.54,1.54,0,0,1,.32,0,2.79,2.79,0,0,1,1.7,1,1.31,1.31,0,0,0,.25.22,3.4,3.4,0,0,0,2,.7,6.49,6.49,0,0,0,1.76-.23,6.56,6.56,0,0,0,1.18-.53,8.4,8.4,0,0,0,1.15-.7,1.27,1.27,0,0,1,.63-.3.77.77,0,0,0,.69.29,1.25,1.25,0,0,0,.75-.27.44.44,0,0,0,.18-.38c0-.13-.16-.28-.33-.31a1.83,1.83,0,0,0-.33,0l-1.3.07a1.43,1.43,0,0,0-.57.23,16.86,16.86,0,0,1-1.84,1,4.94,4.94,0,0,1-2.69.29,4.46,4.46,0,0,1-.78-.26.87.87,0,0,1-.31-.22,2.62,2.62,0,0,0-.75-.66.64.64,0,0,1-.15-.13,1,1,0,0,0-.9-.44c-.32,0-.65,0-1-.07a1,1,0,0,0-.6.14.46.46,0,0,0,0,.79c.08.06.17.09.25.15A.91.91,0,0,1,61.39,99Z" />
    <path d="M70.79,99.59a.21.21,0,0,0,.21.21q.36.08.72.12c.14,0,.29,0,.43,0A4.6,4.6,0,0,0,74,99.82a2.25,2.25,0,0,0,1.35-.94,1.46,1.46,0,0,0,.24-.68,8.2,8.2,0,0,0,0-1.92,3.12,3.12,0,0,1,0-.43,1.43,1.43,0,0,0-.13-.65.2.2,0,0,0-.32-.07.39.39,0,0,0-.16.42,1.18,1.18,0,0,1,0,.62c0,.14,0,.29,0,.43,0,.45,0,.9-.09,1.34a1.12,1.12,0,0,1-.71.91,4.7,4.7,0,0,1-.82.29,13.92,13.92,0,0,1-2,.36C71.15,99.51,71,99.56,70.79,99.59Z" />
    <path d="M61.29,90.08a3.94,3.94,0,0,0,.51-.49A6.07,6.07,0,0,1,63,88.66a2.45,2.45,0,0,1,.58-.24c.32-.1.86-.08,1.19-.15a5.47,5.47,0,0,1,2.75.16,10.57,10.57,0,0,1,2,1c.48.28,1,.58,1.42.9a4.22,4.22,0,0,1,.45.49.23.23,0,0,0,.16.07.19.19,0,0,0,.11-.15.69.69,0,0,0,0-.32,1.46,1.46,0,0,0-.55-.72,11.52,11.52,0,0,0-3-1.47,10.81,10.81,0,0,0-1.49-.37,5,5,0,0,0-1.72.06,7,7,0,0,0-1.68.41,4.38,4.38,0,0,0-1.52,1.15c-.11.14-.24.25-.36.38a1.21,1.21,0,0,0-.09.2Z" />
</svg>