<svg id="noses_-_4_-_hawk" data-name="noses - 4 - hawk" xmlns="http://www.w3.org/2000/svg" viewBox="0 0 146.09 156.94">
    <title>nose_4_side</title>
    <path d="M47.73,81.45c-.21.36-.44.72-.65,1.08a64.66,64.66,0,0,0-2.12,7c-.13.59-1,3.47-1,3.69-.27.85-.67,3-.84,3.09a1.62,1.62,0,0,1-.65-1.48c0-.17-.26-.48-.3-.34a11.11,11.11,0,0,0-.06,1.82A3,3,0,0,1,43,97c0,.23-.21.46-.24.71a25.9,25.9,0,0,0,3.5,2.09c.14,0,5.32-1.86,5.41-1.91s.49.35.53.67c.08,0,.57,0,.67-.21,0,0,.25-.35.23-.53s-.79-.65-1.06-.75-4.81,1.79-5.56,2a15.5,15.5,0,0,1-2.69-1.67c0-.22.56-2.37.79-3.31.17-.63,1.58-6.21,1.77-7C46.7,85.67,47.82,81.28,47.73,81.45Z" />
    <path d="M54,98a1.65,1.65,0,0,0,.35,0c.59-.29,1.18-.57,1.77-.87a.76.76,0,0,0,.4-.73,1.84,1.84,0,0,0-.05-.41c-.07-.32-.14-.65-.24-1a2.54,2.54,0,0,0-.58-1,.22.22,0,0,0-.32-.06.24.24,0,0,0,0,.33,7.45,7.45,0,0,1,.5,1.73c.1.38.05.46-.3.68s-.54.32-.79.49a4.22,4.22,0,0,0-.56.47C54.12,97.67,54.11,97.78,54,98Z" />
</svg>